# xmcd
# 
# Track frame offsets:
#     150
#     19280
#     45450
#     63635
#     84012
#     98455
#     120247
#     137202
#     152690
#     171560
# 
# Disc length: 2576
# 
# Revision: 2
# Processed by: cddbd v1.5.2PL0 Copyright (c) Steve Scherf et al.
# Submitted via: fre:ac v1.0.17
# 
DISCID=760a0e0a
DTITLE=ดนู ฮันตระกูล - เทียบเสียง
DYEAR=1995
DGENRE=Thai
TTITLE0=รักฤดูร้อน
TTITLE1=อัปสรา
TTITLE2=วันหนึ่งวันนั้น
TTITLE3=ดนตรีคีตา
TTITLE4=ฉันจะฝันถึงเธอ
TTITLE5=จดหมายจากเพียงจันทร์
TTITLE6=เมื่อไม่มีเธอ
TTITLE7=แสนสุขสม
TTITLE8=รักอันเป็นนิรันดร์
TTITLE9=บ้านรักเรือนเรา
EXTD=
EXTT0=
EXTT1=
EXTT2=
EXTT3=
EXTT4=
EXTT5=
EXTT6=
EXTT7=
EXTT8=
EXTT9=
PLAYORDER=
